<svg width="1440" height="923" viewBox="0 0 1440 923" fill="none" xmlns="http://www.w3.org/2000/svg">
<path d="M0 0H1440V615.482L0 923V0Z" fill="#889CED"/>
<path d="M196.995 542.013C210.8 538.715 222.331 537.135 231.588 537.272C240.966 537.212 249.213 539.436 256.327 543.942C263.404 548.29 270.49 555.487 277.586 565.532C281.292 570.517 286.134 578.502 292.112 589.485C298.052 600.31 305.227 614.195 313.635 631.139L398.367 802.608L355.05 812.955L299.503 699.424C286.971 705.94 278.179 712.317 273.128 718.555C268.235 724.755 264.924 733.01 263.193 743.319C262.229 748.413 261.686 754.916 261.563 762.829C261.561 770.544 261.863 779.529 262.467 789.784L264.846 834.501L219.862 845.246L217.846 799.939C216.985 780.185 216.996 764.081 217.879 751.626C218.883 738.975 221.369 728.318 225.338 719.655C228.499 712.526 232.881 705.945 238.484 699.91C244.049 693.717 252.663 687.298 264.327 680.655L284.45 669.055C276.466 653.184 269.621 639.975 263.916 629.43C258.172 618.725 253.568 610.684 250.103 605.306C243.173 594.55 236.699 587.458 230.681 584.032C224.663 580.605 217.132 579.972 208.088 582.132L175.957 589.807L166.292 549.346L196.995 542.013ZM804.738 662.774L814.402 703.235L559.498 764.121L549.833 723.66L729.29 680.796L697.966 549.654C690.992 520.459 680.115 501.253 665.334 492.036C650.712 482.782 628.883 481.622 599.846 488.558L510.594 509.877L500.929 469.416L590.658 447.983C634.451 437.523 668.025 439.399 691.379 453.612C714.733 467.826 731.564 496.511 741.873 539.67L773.083 670.335L804.738 662.774ZM1018.79 553.027L1022.66 653.492L976.485 664.521L973.794 564.781C972.988 536.125 973.638 515.675 975.745 503.431C977.814 491.029 981.585 480.484 987.058 471.797C992.689 463.072 1001.03 454.791 1012.07 446.954L920.773 369.133L974.8 356.228L1117.44 478.391C1126.69 464.441 1132.93 448.779 1136.16 431.403C1139.51 413.83 1139.85 394.544 1137.18 373.545L1129.98 319.162L1175.2 308.361L1182.18 361.792C1184.6 379.662 1185.08 395.732 1183.63 410.001C1182.62 419.803 1180.87 429.36 1178.4 438.672C1175.89 447.826 1172.19 457.6 1167.29 467.994C1162.55 478.351 1156 490.231 1147.63 503.636L1260.66 596.642L1204.97 609.945L1038.54 469.311C1027.33 478.531 1020.84 491.402 1019.08 507.923C1018.44 512.269 1018.11 518.22 1018.07 525.777C1018.18 533.296 1018.43 542.38 1018.79 553.027Z" fill="white" fill-opacity="0.14"/>
</svg>
